<svg id="Layer_1" data-name="Layer 1" xmlns="http://www.w3.org/2000/svg" xmlns:xlink="http://www.w3.org/1999/xlink" width="514.11" height="289.19" viewBox="0 0 514.11 289.19"><defs><style>.cls-1{fill:#020000;}.cls-2{fill:#161616;}.cls-3{fill:#3d3d3d;}</style></defs><title>ux_prototype</title><path class="cls-1" d="M147.89,161V36c0-9.88-7.56-17.89-16.9-17.89H42.77c-9.33,0-16.91,8-16.92,17.87V246.19c0,9.88,7.57,17.89,16.91,17.89H131c8.22,0,15.24-6.29,16.63-14.86h0a18,18,0,0,0,.24-3V228.84h0v-20.4l0-.06v-28.9h0V161.12Z"/><path class="cls-2" d="M138.16,30.16H35.59a4,4,0,0,0-4,4h0V235.26a4,4,0,0,0,4,4H138.16a4,4,0,0,0,4-4h0V34.19a4,4,0,0,0-4-4Z"/><circle class="cls-3" cx="86.87" cy="251.6" r="7.9"/><path class="cls-1" d="M318.81,161V36c0-9.88-7.57-17.89-16.9-17.89H213.69c-9.34,0-16.91,8-16.92,17.87V246.19c0,9.88,7.57,17.89,16.9,17.89h88.22c8.23,0,15.25-6.29,16.63-14.86h0a18,18,0,0,0,.25-3V228.84h0v-20.4l0-.06v-28.9h0V161.12Z"/><path class="cls-2" d="M309.07,30.16H206.5a4,4,0,0,0-4,4h0V235.26a4,4,0,0,0,4,4H309.07a4,4,0,0,0,4-4h0V34.19a4,4,0,0,0-4-4Z"/><circle class="cls-3" cx="257.79" cy="251.6" r="7.9"/><path class="cls-1" d="M489.73,161V36c0-9.88-7.57-17.89-16.91-17.89H384.6c-9.33,0-16.91,8-16.91,17.87V246.19c0,9.88,7.56,17.89,16.9,17.89h88.22c8.22,0,15.24-6.29,16.63-14.86h0a17,17,0,0,0,.24-3V228.84h-.05v-20.4l.05-.06v-28.9h-.05V161.12Z"/><path class="cls-2" d="M480,30.16H377.42a4,4,0,0,0-4,4h0V235.26a4,4,0,0,0,4,4H480a4,4,0,0,0,4-4h0V34.19a4,4,0,0,0-4-4Z"/><circle class="cls-3" cx="428.71" cy="251.6" r="7.9"/><image width="588" height="1122" transform="translate(32.03 30.02) scale(0.19)" xlink:href="ux_prototype1.png"/><image width="515" height="1114" transform="translate(203.69 30.02) scale(0.21 0.19)" xlink:href="ux_prototype2.png"/><image width="647" height="1237" transform="translate(373.35 28.38) scale(0.17)" xlink:href="ux_prototype3.png"/></svg>
